# xmcd
#
# Track frame offsets: 
#        150
#        30436
#        54539
#        72884
#        89975
#        106892
#        124317
#        144949
#        157653
#        172334
#        185448
#
# Disc length: 2707 seconds
#
# Revision: 0
# Processed by: cddbd v1.5.2PL0 Copyright (c) Steve Scherf et al.
# Submitted via: ExactAudioCopy v0.99pb5
#
DISCID=960a910b
DTITLE=Chuck Prophet - Dreaming Waylon's Dreams
DYEAR=2009
DGENRE=Country
TTITLE0=Are You Sure Hank Done It This Way
TTITLE1=Waymore's Blues
TTITLE2=I Recall A Gypsy Woman
TTITLE3=High Time (You Quit Your Low Down Ways)
TTITLE4=I've Been A Long Time Leaving (But I'll Be A Long Time Gone)
TTITLE5=Let's All Help The Cowboys (Sing The Blues)
TTITLE6=The Door Is Always Open
TTITLE7=Let's Turn Back The Years
TTITLE8=She's Looking Good
TTITLE9=Dreamin My Dreams With You
TTITLE10=Bob Wills Is Still The King
EXTD=
EXTT0=
EXTT1=
EXTT2=
EXTT3=
EXTT4=
EXTT5=
EXTT6=
EXTT7=
EXTT8=
EXTT9=
EXTT10=
PLAYORDER=
